# xmcd CD database file
#
# Track frame offsets:
#	150
#	13192
#	27315
#	39494
#	51844
#	67420
#	80475
#	95870
#
# Disc length: 1473 seconds
#
# Revision: 0
# Processed by: cddbd v1.5.2PL0 Copyright (c) Steve Scherf et al.
# Submitted via: CDex 1.70beta2
#
DISCID=6f05bf08
DTITLE=Divers - Jazzmag n°616 - 07-08-2010 (1954 Paroles et musique)
DYEAR=2010
DGENRE=Jazz
TTITLE0=Muddie Waters - (I'm your) Hoochie Coochie Man
TTITLE1=Big Joe Turner - Shake Rattle and Roll
TTITLE2=Ella Fitzgerald - My Heart belongs to Daddy
TTITLE3=Sarah Vaughan - Shulie a Bop
TTITLE4=Dinah Washington - No more
TTITLE5=Ray Charles - I got a woman
TTITLE6=King Pleasure - Don't get scared
TTITLE7=Helen Merrill - 'S Wonderful
EXTD=YEAR: 2010
EXTT0=
EXTT1=
EXTT2=
EXTT3=
EXTT4=
EXTT5=
EXTT6=
EXTT7=
PLAYORDER=
